<svg width="24" height="24" viewBox="0 0 24 24" fill="none" xmlns="http://www.w3.org/2000/svg">
<path opacity="0.01" fill-rule="evenodd" clip-rule="evenodd" d="M0 24V0H24V24H0Z" fill="white"/>
<path fill-rule="evenodd" clip-rule="evenodd" d="M10.7429 16.1437C7.76165 16.1437 5.33879 13.7208 5.33879 10.7429C5.33879 7.7649 7.76165 5.33878 10.7429 5.33878C13.7208 5.33878 16.1469 7.7649 16.1469 10.7429C16.1469 13.7208 13.7208 16.1437 10.7429 16.1437ZM19.8041 18.8637L15.9576 15.0171C16.911 13.8547 17.4857 12.3657 17.4857 10.7429C17.4857 7.02041 14.4653 4 10.7429 4C7.01715 4 4 7.02041 4 10.7429C4 14.4653 7.01714 17.4857 10.7429 17.4857C12.3657 17.4857 13.8514 16.9143 15.0139 15.9608L18.8604 19.8041C19.1216 20.0653 19.5429 20.0653 19.8041 19.8041C20.0653 19.5461 20.0653 19.1216 19.8041 18.8637Z" fill="white"/>
</svg>
